HIERARCHY
ROOT Hips
{
	OFFSET 0.00000 0.00000 0.00000
	CHANNELS 6 Xposition Yposition Zposition Zrotation Yrotation Xrotation 
	JOINT LHipJoint
	{
		OFFSET 0 0 0
		CHANNELS 3 Zrotation Yrotation Xrotation
		JOINT LeftHip
		{
			OFFSET 1.56857 -1.73443 1.15205
			CHANNELS 3 Zrotation Yrotation Xrotation
			JOINT LeftKnee
			{
				OFFSET 2.39362 -6.57643 0.00000
				CHANNELS 3 Zrotation Yrotation Xrotation
				JOINT LeftAnkle
				{
					OFFSET 2.50952 -6.89485 0.00000
					CHANNELS 3 Zrotation Yrotation Xrotation
					JOINT LeftToe
					{
						OFFSET 0.17171 -0.47178 1.88682
						CHANNELS 3 Zrotation Yrotation Xrotation
						End Site
						{
							OFFSET 0.00000 -0.00000 0.98146
						}
					}
				}
			}
		}
	}
	JOINT RHipJoint
	{
		OFFSET 0 0 0
		CHANNELS 3 Zrotation Yrotation Xrotation
		JOINT RightHip
		{
			OFFSET -1.28153 -1.73443 1.15205
			CHANNELS 3 Zrotation Yrotation Xrotation
			JOINT RightKnee
			{
				OFFSET -2.26861 -6.23296 0.00000
				CHANNELS 3 Zrotation Yrotation Xrotation
				JOINT RightAnkle
				{
					OFFSET -2.54143 -6.98254 0.00000
					CHANNELS 3 Zrotation Yrotation Xrotation
					JOINT RightToe
					{
						OFFSET -0.23309 -0.64041 1.93119
						CHANNELS 3 Zrotation Yrotation Xrotation
						End Site
						{
							OFFSET -0.00000 -0.00000 1.02013
						}
					}
				}
			}
		}
	}
	JOINT lowerback
	{
		OFFSET 0 0 0
		CHANNELS 3 Zrotation Yrotation Xrotation
		JOINT Chest
		{
			OFFSET -0.07096 2.10460 -0.27878
			CHANNELS 3 Zrotation Yrotation Xrotation
			JOINT Chest2
			{
				OFFSET -0.00826 2.13662 -0.08279
				CHANNELS 3 Zrotation Yrotation Xrotation
				JOINT lowerneck
				{
					OFFSET 0 0 0
					CHANNELS 3 Zrotation Yrotation Xrotation
					JOINT Neck
					{
						OFFSET 0.03239 1.77799 0.24435
						CHANNELS 3 Zrotation Yrotation Xrotation
						JOINT Head
						{
							OFFSET 0.01026 1.74194 -0.49664
							CHANNELS 3 Zrotation Yrotation Xrotation
							End Site
							{
								OFFSET 0.00170 1.83057 -0.19653
							}
						}
					}
				}
				JOINT LeftCollar
				{
					OFFSET 0 0 0
					CHANNELS 3 Zrotation Yrotation Xrotation
					JOINT LeftShoulder
					{
						OFFSET 3.19178 1.35907 -0.31412
CHANNELS 3 Zrotation Xrotation Yrotation
						JOINT LeftElbow
						{
OFFSET 0 -4.852470 -0.000000
CHANNELS 3 Zrotation Xrotation Yrotation
							JOINT LeftWrist
							{
OFFSET 0 -3.555840 0.000000
CHANNELS 3 Zrotation Xrotation Yrotation
								JOINT lhand
								{
									OFFSET 0 0 0
CHANNELS 3 Zrotation Xrotation Yrotation
									JOINT LFingers
									{
OFFSET 0 -0.693200 0.000000
CHANNELS 3 Zrotation Xrotation Yrotation
										End Site
										{
OFFSET 0 -0.558880 0.000000
										}
									}
								}
								JOINT LThumb
								{
OFFSET 0 0.000000 0.000000
CHANNELS 3 Zrotation Xrotation Yrotation
									End Site
									{
OFFSET 0 -0.567410 0.567410
									}
								}
							}
						}
					}
				}
				JOINT RightCollar
				{
					OFFSET 0 0 0
					CHANNELS 3 Zrotation Yrotation Xrotation
					JOINT RightShoulder
					{
						OFFSET -3.28999 1.24191 -0.26899
CHANNELS 3 Zrotation Xrotation Yrotation
						JOINT RightElbow
						{
OFFSET 0 -4.644620 0.000000
CHANNELS 3 Zrotation Xrotation Yrotation
							JOINT RightWrist
							{
OFFSET 0 -3.407030 0.000000
CHANNELS 3 Zrotation Xrotation Yrotation
								JOINT rhand
								{
									OFFSET 0 0 0
CHANNELS 3 Zrotation Xrotation Yrotation
									JOINT RFingers
									{
OFFSET 0 -0.619580 0.000000
CHANNELS 3 Zrotation Xrotation Yrotation
										End Site
										{
OFFSET 0 -0.499520 0.000000
										}
									}
								}
								JOINT RThumb
								{
OFFSET 0 0.000000 0.000000
CHANNELS 3 Zrotation Xrotation Yrotation
									End Site
									{
OFFSET 0 -0.507150 0.507150
									}
								}
							}
						}
					}
				}
			}
		}
	}
}
MOTION
Frames: 11
Frame Time: 0.008333333333333333
0.000000 0.000000 0.000000 0.000000 0.000000 0.000000 0.000000 0.000000 0.000000 0.000000 0.000000 0.000000 0.000000 0.000000 0.000000 0.000000 0.000000 0.000000 0.000000 0.000000 0.000000 0.000000 0.000000 0.000000 0.000000 0.000000 0.000000 0.000000 0.000000 0.000000 -0.000000 -0.000000 0.000000 -0.000000 -0.000000 0.000000 0.000000 0.000000 0.000000 0.000000 0.000000 0.000000 0.000000 0.000000 0.000000 0.000000 0.000000 0.000000 0.000000 0.000000 0.000000 0.000000 0.000000 0.000000 0.000000 0.000000 0.000000 90.000000 0.000000 0.000000 -0.000000 0.000000 0.000000 -0.000000 0.000000 -0.000000 0.000000 0.000000 0.000000 -0.000000 -0.000000 -0.000000 -0.000000 0.000000 -0.000000 0.000000 0.000000 0.000000 -90.000000 0.000000 -0.000000 0.000000 0.000000 -0.000000 0.000000 0.000000 -0.000000 0.000000 0.000000 0.000000 0.000000 -0.000000 0.000000 0.000000 0.000000 0.000000
0.000000 0.000000 0.000000 0.000000 0.000000 0.000000 0.000000 0.000000 0.000000 0.000000 0.000000 0.000000 0.000000 0.000000 0.000000 0.000000 0.000000 0.000000 0.000000 0.000000 0.000000 0.000000 0.000000 0.000000 0.000000 0.000000 0.000000 0.000000 0.000000 0.000000 0.000000 0.000000 0.000000 0.000000 0.000000 0.000000 0.000000 0.000000 0.000000 0.000000 0.000000 0.000000 0.000000 0.000000 0.000000 0.000000 0.000000 0.000000 0.000000 0.000000 0.000000 0.000000 0.000000 0.000000 0.000000 0.000000 0.000000 90.000000 0.000000 0.000000 0.000000 0.000000 0.000000 0.000000 0.000000 0.000000 0.000000 0.000000 0.000000 0.000000 0.000000 0.000000 0.000000 0.000000 0.000000 0.000000 0.000000 0.000000 -90.000000 0.000000 0.000000 0.000000 0.000000 0.000000 0.000000 0.000000 0.000000 0.000000 0.000000 0.000000 0.000000 0.000000 0.000000 0.000000 0.000000 0.000000
0.000000 0.000000 0.000000 0.000000 0.000000 0.000000 0.000000 0.000000 0.000000 0.000000 0.000000 0.000000 0.000000 0.000000 0.000000 0.000000 0.000000 0.000000 0.000000 0.000000 0.000000 0.000000 0.000000 0.000000 0.000000 0.000000 0.000000 0.000000 0.000000 0.000000 0.000000 0.000000 0.000000 0.000000 0.000000 0.000000 0.000000 0.000000 0.000000 0.000000 0.000000 0.000000 0.000000 0.000000 0.000000 0.000000 0.000000 0.000000 0.000000 0.000000 0.000000 0.000000 0.000000 0.000000 0.000000 0.000000 0.000000 90.000000 0.000000 0.000000 0.000000 0.000000 0.000000 0.000000 0.000000 0.000000 0.000000 0.000000 0.000000 0.000000 0.000000 0.000000 0.000000 0.000000 0.000000 0.000000 0.000000 0.000000 -90.000000 0.000000 0.000000 0.000000 0.000000 0.000000 0.000000 0.000000 0.000000 0.000000 0.000000 0.000000 0.000000 0.000000 0.000000 0.000000 0.000000 0.000000
0.000000 0.000000 0.000000 0.000000 0.000000 0.000000 0.000000 0.000000 0.000000 0.000000 0.000000 0.000000 0.000000 0.000000 0.000000 0.000000 0.000000 0.000000 0.000000 0.000000 0.000000 0.000000 0.000000 0.000000 0.000000 0.000000 0.000000 0.000000 0.000000 0.000000 0.000000 0.000000 0.000000 0.000000 0.000000 0.000000 0.000000 0.000000 0.000000 0.000000 0.000000 0.000000 0.000000 0.000000 0.000000 0.000000 0.000000 0.000000 0.000000 0.000000 0.000000 0.000000 0.000000 0.000000 0.000000 0.000000 0.000000 90.000000 0.000000 0.000000 0.000000 0.000000 0.000000 0.000000 0.000000 0.000000 0.000000 0.000000 0.000000 0.000000 0.000000 0.000000 0.000000 0.000000 0.000000 0.000000 0.000000 0.000000 -90.000000 0.000000 0.000000 0.000000 0.000000 0.000000 0.000000 0.000000 0.000000 0.000000 0.000000 0.000000 0.000000 0.000000 0.000000 0.000000 0.000000 0.000000
-29.988503 17.054486 0.856900 44.821058 86.528977 45.308667 0.000000 0.000000 0.000000 -17.561968 0.085896 12.495663 0.034408 -1.197862 -3.293444 0.152915 8.578814 -14.791535 0.738515 -5.490043 -15.311762 0.000000 0.000000 0.000000 10.480865 -5.478775 7.667042 -0.008669 -0.600823 1.651043 -0.687581 1.636579 -15.192031 -0.177149 -2.711236 7.475764 -5.093354 1.370888 3.225363 -0.489808 1.646618 0.264233 2.272437 0.861467 -1.665789 4.482616 3.487653 -21.071580 -1.981469 4.231445 25.050063 -0.781383 2.159932 11.857597 0.000000 0.000000 0.000000 2.082559 0.663250 -36.799491 11.165673 -18.541576 1.828381 0.000000 20.683106 0.000000 0.000000 0.000000 0.000000 0.000000 0.000000 0.000000 0.000000 0.000000 0.000000 0.000000 0.000000 0.000000 -2.864542 3.514714 38.191422 -16.356896 -26.002083 -3.801132 -11.799129 10.387572 31.944465 0.000000 0.000000 0.000000 7.125000 0.000000 0.000000 23.618050 60.907260 -9.456335
-29.991413 17.057509 0.857073 46.051825 86.590951 46.521008 0.000000 0.000000 0.000000 -17.655243 -0.177101 12.688754 0.038306 -1.263234 -3.473436 0.126643 8.878179 -14.756557 0.784678 -5.651927 -15.778624 0.000000 0.000000 0.000000 10.519806 -5.475366 7.727758 -0.008358 -0.589829 1.620855 -0.688479 1.505367 -15.234484 -0.160601 -2.580800 7.113872 -5.174919 1.326147 3.233023 -0.430629 1.584577 0.274948 2.382196 0.830766 -1.658227 4.406958 3.493392 -20.981327 -1.964731 4.264225 24.999591 -0.758641 2.170345 11.819116 0.000000 0.000000 0.000000 1.913176 0.521120 -36.371897 11.411839 -18.916785 1.907318 0.000000 18.855376 0.000000 0.000000 0.000000 0.000000 0.000000 0.000000 0.000000 0.000000 0.000000 0.000000 0.000000 0.000000 0.000000 -2.962848 3.494423 38.281057 -16.356835 -26.001985 -3.801113 -11.844707 10.464292 31.963871 0.000000 0.000000 0.000000 7.125000 0.000000 0.000000 23.587219 60.935751 -9.459271
-29.994176 17.056224 0.858540 46.515194 86.598121 46.973739 0.000000 0.000000 0.000000 -17.583837 -0.012448 12.586548 0.036931 -1.240092 -3.409640 0.134334 8.678323 -14.630499 0.863019 -5.923628 -16.563126 0.000000 0.000000 0.000000 10.520420 -5.480490 7.717273 -0.008668 -0.601964 1.654235 -0.692947 1.468720 -15.293729 -0.145916 -2.461326 6.782511 -5.196915 1.325048 3.273583 -0.437138 1.578058 0.230749 2.386520 0.830073 -1.726527 4.367129 3.458020 -20.819593 -1.910995 4.221891 24.970675 -0.741310 2.157239 11.772285 0.000000 0.000000 0.000000 1.931268 0.588921 -36.440146 11.456948 -18.985228 1.921986 0.000000 18.524764 0.000000 0.000000 0.000000 0.000000 0.000000 0.000000 0.000000 0.000000 0.000000 0.000000 0.000000 0.000000 0.000000 -2.912052 3.542795 38.100462 -16.280365 -25.899360 -3.767602 -11.570055 10.512227 31.944293 0.000000 0.000000 0.000000 7.125000 0.000000 0.000000 23.858155 60.852022 -9.527210
-29.998400 17.054576 0.858908 48.237810 86.608138 48.695600 0.000000 0.000000 0.000000 -17.350727 0.709044 12.048260 0.028865 -1.095711 -3.012318 0.178323 7.764462 -14.242698 0.921371 -6.115136 -17.119070 0.000000 0.000000 0.000000 10.488785 -5.403376 7.770508 -0.008154 -0.583533 1.603575 -0.696246 1.296321 -15.375843 -0.151371 -2.507058 6.909143 -5.284794 1.323942 3.433324 -0.438561 1.558704 0.110111 2.430148 0.828447 -1.941520 4.397643 3.406087 -20.643089 -2.001162 4.178554 24.988549 -0.789159 2.132725 11.745912 0.000000 0.000000 0.000000 1.957454 0.913218 -36.869012 11.370456 -18.853642 1.894059 2.853902 18.080954 5.561603 0.000000 0.000000 0.000000 -1.486853 0.000000 0.000000 -2.038689 0.626711 -1.958180 0.000000 0.000000 0.000000 -2.873226 3.805992 37.694471 -16.228676 -25.829598 -3.745097 -11.580729 10.672736 30.783840 0.000000 0.000000 0.000000 7.125000 0.000000 0.000000 22.875537 59.800533 -8.536251
-29.997928 17.057206 0.857800 48.462045 86.667797 48.879851 0.000000 0.000000 0.000000 -17.218442 0.965425 11.888533 0.025228 -1.025317 -2.818452 0.189950 7.448657 -14.072020 0.987527 -6.324372 -17.728783 0.000000 0.000000 0.000000 10.552041 -5.381043 7.879707 -0.007443 -0.557139 1.531083 -0.696014 1.201600 -15.398188 -0.137586 -2.390282 6.585516 -5.358447 1.291369 3.951852 -0.354888 1.465493 -0.281576 2.546286 0.806064 -2.634197 4.471887 3.429653 -20.222676 -2.089626 4.257903 25.181464 -0.825688 2.175314 11.744655 0.000000 0.000000 0.000000 1.849981 1.716303 -36.869254 11.146347 -18.512220 1.822114 14.238060 14.565058 26.854225 0.000000 0.000000 0.000000 -7.125000 0.000000 0.000000 -9.447380 2.720128 -9.113581 0.000000 0.000000 0.000000 -2.931106 4.657217 37.332627 -16.316326 -25.947618 -3.783319 -11.537533 11.089217 29.828148 0.000000 0.000000 0.000000 7.125000 0.000000 0.000000 22.167634 58.916174 -7.779978
-30.000943 17.058384 0.859395 48.640158 86.730730 49.084512 0.000000 0.000000 0.000000 -17.126996 1.009190 11.789133 0.024296 -1.006807 -2.767441 0.179946 7.403812 -13.867673 1.061885 -6.551262 -18.392808 0.000000 0.000000 0.000000 10.651004 -5.321669 7.885444 -0.007216 -0.548557 1.507427 -0.696644 1.141559 -15.421338 -0.134415 -2.363334 6.510872 -5.347648 1.286555 3.970017 -0.343723 1.457299 -0.313915 2.551491 0.803430 -2.677218 4.568625 3.435264 -20.214306 -2.198589 4.270641 25.244887 -0.880022 2.177477 11.773184 0.000000 0.000000 0.000000 1.849706 1.734638 -36.825049 11.121126 -18.473764 1.814149 15.398841 14.114283 26.917578 0.000000 0.000000 0.000000 -7.125000 0.000000 0.000000 -8.757403 2.487804 -8.469963 0.000000 0.000000 0.000000 -2.918059 4.725182 37.237686 -16.366380 -26.014879 -3.805237 -11.261921 10.883506 30.175511 0.000000 0.000000 0.000000 7.125000 0.000000 0.000000 22.719781 59.172381 -8.128506
-30.002976 17.056976 0.860153 49.562950 86.755651 50.038984 0.000000 0.000000 0.000000 -17.119418 0.985971 11.738682 0.024366 -1.006824 -2.767528 0.181462 7.375667 -13.860651 1.035801 -6.472673 -18.162334 0.000000 0.000000 0.000000 10.649544 -5.317477 7.867896 -0.007084 -0.543536 1.493570 -0.698017 1.098145 -15.448173 -0.138297 -2.396708 6.603377 -5.369089 1.267086 3.926683 -0.350217 1.433317 -0.307851 2.559368 0.790888 -2.644975 4.597697 3.424548 -20.207782 -2.256177 4.260942 25.217448 -0.908037 2.168040 11.763177 0.000000 0.000000 0.000000 1.825351 1.659351 -36.749174 11.087086 -18.421595 1.803362 15.177230 14.409892 26.738798 0.000000 0.000000 0.000000 -7.125000 0.000000 0.000000 -8.876542 2.700413 -8.553233 0.000000 0.000000 0.000000 -2.937076 4.764454 37.404739 -16.509342 -26.206306 -3.868162 -11.038182 10.591639 30.678890 0.000000 0.000000 0.000000 7.125000 0.000000 0.000000 23.351140 59.580147 -8.600845
